{
  "accessors" : [
     {
        "bufferView" : 2,
        "byteOffset" : 0,
        "componentType" : 5126,
        "count" : 706,
        "max" : [ 1, 1, 1, 1 ],
        "min" : [ 0.729918897151947, 0.3250369727611542, 0.05459228157997131, 1 ],
        "name" : "accessor_color_m0-PolyPaper21_-43086",
        "type" : "VEC4"
     },
     {
        "bufferView" : 0,
        "byteOffset" : 0,
        "componentType" : 5123,
        "count" : 780,
        "max" : [ 705 ],
        "min" : [ 0 ],
        "name" : "accessor_indices_0_m0-PolyPaper21_-43086",
        "type" : "SCALAR"
     },
     {
        "bufferView" : 1,
        "byteOffset" : 8472,
        "componentType" : 5126,
        "count" : 706,
        "max" : [ 0.996879, 0.9997035, 0.9985495 ],
        "min" : [ -0.9739562, -0.9988572999999999, -0.9976723 ],
        "name" : "accessor_normal_m0-PolyPaper21_-43086",
        "type" : "VEC3"
     },
     {
        "bufferView" : 1,
        "byteOffset" : 0,
        "componentType" : 5126,
        "count" : 706,
        "max" : [ 0.2769769, 2.356507, -2.151818 ],
        "min" : [ 0.00905619, 1.96187, -2.520492 ],
        "name" : "accessor_position_m0-PolyPaper21_-43086",
        "type" : "VEC3"
     }
  ],
  "asset" : {
     "copyright" : "Unknown",
     "extras" : {
        "GOOGLE_processor_version" : 294144208
     },
     "generator" : "glTF 1-to-2 Upgrader for Google Blocks",
     "version" : "2.0"
  },
  "bufferViews" : [
     {
        "buffer" : 0,
        "byteLength" : 1560,
        "byteOffset" : 0,
        "name" : "ushortBufferView",
        "target" : 34963
     },
     {
        "buffer" : 0,
        "byteLength" : 16944,
        "byteOffset" : 1560,
        "byteStride" : 12,
        "name" : "vec3BufferView",
        "target" : 34962
     },
     {
        "buffer" : 0,
        "byteLength" : 11296,
        "byteOffset" : 18504,
        "byteStride" : 16,
        "name" : "vec4BufferView",
        "target" : 34962
     }
  ],
  "buffers" : [
     {
        "byteLength" : 29800,
        "name" : "model",
        "uri" : "model.bin"
     }
  ],
  "cameras" : [
     {
        "perspective" : {
           "yfov" : 0.7853981633974483,
           "znear" : 0.1000000014901161
        },
        "type" : "perspective"
     }
  ],
  "extensions" : {
     "KHR_lights_punctual" : {
        "lights" : [
           {
              "color" : [ 1, 0.9333333333333333, 0.8666666666666667 ],
              "intensity" : 0.0,
              "name" : "headLight",
              "type" : "directional"
           },
           {
              "color" : [ 1, 0.9333333333333333, 0.8666666666666667 ],
              "intensity" : 0.0,
              "name" : "keyLight",
              "type" : "directional"
           }
        ]
     }
  },
  "extensionsUsed" : [ "GOOGLE_backgrounds", "GOOGLE_camera_settings", "KHR_lights_punctual" ],
  "extras" : {
     "GOOGLE_initial_camera_motion" : {
        "motionPath" : "FULL_ROTATION"
     },
     "GOOGLE_lighting_rig" : {
        "disableShadows" : false
     }
  },
  "materials" : [
     {
        "alphaMode" : "OPAQUE",
        "doubleSided" : false,
        "name" : "BlocksPaper",
        "pbrMetallicRoughness" : {
           "baseColorFactor" : [ 1, 1, 1, 1 ],
           "metallicFactor" : 0,
           "roughnessFactor" : 0.6
        }
     },
     {
        "alphaMode" : "BLEND",
        "doubleSided" : false,
        "name" : "BlocksGlass",
        "pbrMetallicRoughness" : {
           "baseColorFactor" : [ 0.2, 0.2, 1, 0.3 ],
           "metallicFactor" : 1,
           "roughnessFactor" : 0.4
        }
     },
     {
        "alphaMode" : "OPAQUE",
        "doubleSided" : true,
        "name" : "BlocksGem",
        "pbrMetallicRoughness" : {
           "baseColorFactor" : [ 1, 0.4, 1, 1 ],
           "metallicFactor" : 0,
           "roughnessFactor" : 0.1
        }
     }
  ],
  "meshes" : [
     {
        "name" : "mesh_m0-PolyPaper21_-43086",
        "primitives" : [
           {
              "attributes" : {
                 "COLOR_0" : 0,
                 "NORMAL" : 2,
                 "POSITION" : 3
              },
              "indices" : 1,
              "material" : 0,
              "mode" : 4
           }
        ]
     }
  ],
  "nodes" : [
     {
        "mesh" : 0,
        "name" : "node_MeshObject1318748096-PolyPaper21"
     },
     {
        "children" : [ 2 ]
     },
     {
        "children" : [ 3 ],
        "extras" : {
           "isTransformNode" : 1
        },
        "translation" : [ 0.1444680093204207, 2.152115019101207, -2.324287958382324 ]
     },
     {
        "children" : [ 0 ],
        "translation" : [ -0.1444680093204207, -2.152115019101207, 2.324287958382324 ]
     },
     {
        "camera" : 0,
        "children" : [ 5 ],
        "rotation" : [
           -0.1021733393824868,
           0.5754175121868387,
           0.07274611017242878,
           0.8081851884580176
        ],
        "translation" : [ 0.8005061745643616, 2.332555532455445, -2.052966594696045 ]
     },
     {
        "extensions" : {
           "KHR_lights_punctual" : {
              "light" : 0
           }
        },
        "extras" : {
           "isHeadLight" : 1
        },
        "name" : "headLightNode",
        "translation" : [ -0.3192722352306203, 0.1596361176153102, 0.1596361176153102 ]
     },
     {
        "extensions" : {
           "KHR_lights_punctual" : {
              "light" : 1
           }
        },
        "extras" : {
           "isKeyLight" : 1
        },
        "name" : "keyLightNode",
        "rotation" : [ -0.7505326882858236, -0.3752663441429118, 0, 0.5439447166468927 ],
        "scale" : [ 0, 0, 0.3224649575829265 ],
        "translation" : [ -0.1566068803625189, 2.804910981711604, -2.595188694494516 ]
     }
  ],
  "scene" : 0,
  "scenes" : [
     {
        "extensions" : {
           "GOOGLE_backgrounds" : {
              "color" : [ 0.5450980392156862, 0.7647058823529411, 0.2901960784313726 ]
           },
           "GOOGLE_camera_settings" : {}
        },
        "extras" : {
           "GOOGLE_camera_index" : {
              "cameraIndex" : 0,
              "nodeIndex" : 4
           },
           "GOOGLE_geometry_data" : {
              "stats" : {
                 "centroid" : [ 0.1658580772204077, 2.159981066545751, -2.27272373691159 ],
                 "radius" : 0.3192722352306203,
                 "stdev" : 0.1436152867987528
              },
              "visualCenterPoint" : [ 0.1444680093204207, 2.152115019101207, -2.324287958382324 ]
           },
           "GOOGLE_hemi_light" : {
              "groundColor" : [ 0.5450980392156862, 0.7647058823529411, 0.2901960784313726 ]
           }
        },
        "name" : "defaultScene",
        "nodes" : [ 1, 4, 6 ]
     }
  ]
}